<?xml version="1.0" encoding="UTF-8" standalone="no"?>
<svg
   xmlns:sketch="http://www.bohemiancoding.com/sketch/ns"
   xmlns:dc="http://purl.org/dc/elements/1.1/"
   xmlns:cc="http://creativecommons.org/ns#"
   xmlns:rdf="http://www.w3.org/1999/02/22-rdf-syntax-ns#"
   xmlns:svg="http://www.w3.org/2000/svg"
   xmlns="http://www.w3.org/2000/svg"
   xmlns:sodipodi="http://sodipodi.sourceforge.net/DTD/sodipodi-0.dtd"
   xmlns:inkscape="http://www.inkscape.org/namespaces/inkscape"
   viewBox="0 0 7 7"
   id="svg"
   version="1.1"
   inkscape:version="0.92.4 (5da689c313, 2019-01-14)"
   width="7"
   height="7"
   sodipodi:docname="window.svg">
  <defs
     id="defs81">
    <style
       id="current-color-scheme"
       type="text/css">
      .ColorScheme-Text {
        color:#7B7C7E;
      }
      .ColorScheme-Background{
        color:#EFF0F1;
      }
      .ColorScheme-Highlight{
        color:#3DAEE6;
      }
      .ColorScheme-ViewText {
        color:#7B7C7E;
      }
      .ColorScheme-ViewBackground{
        color:#FCFCFC;
      }
      .ColorScheme-ViewHover {
        color:#3DAEE6;
      }
      .ColorScheme-ViewFocus{
        color:#1E92FF;
      }
      .ColorScheme-ButtonText {
        color:#7B7C7E;
      }
      .ColorScheme-ButtonBackground{
        color:#EFF0F1;
      }
      .ColorScheme-ButtonHover {
        color:#3DAEE6;
      }
      .ColorScheme-ButtonFocus{
        color:#1E92FF;
      }
</style>
  </defs>
  <metadata
     id="metadata34">
    <rdf:RDF>
      <cc:Work
         rdf:about="">
        <dc:format>image/svg+xml</dc:format>
        <dc:type
           rdf:resource="http://purl.org/dc/dcmitype/StillImage" />
        <dc:title />
      </cc:Work>
    </rdf:RDF>
  </metadata>
  <sodipodi:namedview
     pagecolor="#ffffff"
     bordercolor="#666666"
     borderopacity="1"
     objecttolerance="10"
     gridtolerance="10"
     guidetolerance="10"
     inkscape:pageopacity="1"
     inkscape:pageshadow="2"
     inkscape:window-width="1280"
     inkscape:window-height="977"
     id="namedview32"
     showgrid="false"
     inkscape:zoom="31.453091"
     inkscape:cx="3.4633406"
     inkscape:cy="-0.75814009"
     inkscape:window-x="0"
     inkscape:window-y="0"
     inkscape:window-maximized="1"
     inkscape:current-layer="svg"
     borderlayer="true"
     showguides="true"
     inkscape:guide-bbox="true"
     inkscape:snap-bbox="true"
     inkscape:object-paths="true"
     inkscape:bbox-nodes="true"
     inkscape:showpageshadow="false">
    <inkscape:grid
       type="xygrid"
       id="grid3046"
       empspacing="5"
       visible="true"
       enabled="true"
       snapvisiblegridlinesonly="true"
       originx="-7.5520474"
       originy="-8.0466325" />
  </sodipodi:namedview>
  <g
     id="window-close"
     transform="translate(-7.5520474,-6.9533675)">
    <rect
       y="0"
       x="0"
       height="22"
       width="22"
       id="rect3763"
       style="fill:#566060;fill-opacity:0;stroke:none"
       d="M 0,0 22,0 22,22 0,22 z" />
    <g
       style="fill:#ffffff;fill-opacity:1"
       inkscape:label="Capa 1"
       id="layer1"
       transform="matrix(0.87855142,0,0,0.87855142,1.2956548,-903.96734)">
      <g
         transform="matrix(0.9157823,0,0,0.9157823,-530.08465,471.22303)"
         id="layer1-6"
         inkscape:label="Capa 1"
         style="fill:#ffffff;fill-opacity:1">
        <g
           style="fill:#ffffff;fill-opacity:1"
           transform="matrix(0.14300539,0,0,0.14300539,554.04072,610.29161)"
           sketch:type="MSShapeGroup"
           id="g5548">
          <g
             style="fill:#ffffff;fill-opacity:1"
             inkscape:label="Layer 1"
             id="layer1-9"
             transform="matrix(16.049617,0,0,16.049617,-12213.761,-3046.8513)">
            <g
               style="fill:#ffffff;fill-opacity:1"
               transform="matrix(0.37907185,0,0,0.37907185,615.60988,-10.010196)"
               id="layer1-2"
               inkscape:label="Capa 1">
              <g
                 id="remove11"
                 sketch:type="MSLayerGroup"
                 transform="matrix(0.20663505,0,0,0.20663505,416.2249,531.51293)"
                 style="fill:#ffffff;fill-opacity:1">
                <path
                   d="M 58.268436,44.220572 70.244943,32.244068 c 0.760502,-0.759996 1.140494,-1.683499 1.140494,-2.769984 0,-1.086519 -0.380501,-2.009501 -1.140494,-2.770019 l -5.540007,-5.540498 c -0.760499,-0.760495 -1.6835,-1.140494 -2.769499,-1.140494 -1.086992,0 -2.009999,0.379999 -2.770492,1.140494 L 47.188435,33.140068 35.211936,21.163567 c -0.760004,-0.760495 -1.683502,-1.140494 -2.769999,-1.140494 -1.086,0 -2.009498,0.379999 -2.770001,1.140494 l -5.540499,5.540498 c -0.76,0.760008 -1.1405,1.6835 -1.1405,2.770019 0,1.086485 0.38,2.009498 1.1405,2.769984 l 11.976501,11.976504 -11.976501,11.97651 c -0.76,0.760482 -1.1405,1.683499 -1.1405,2.769981 0,1.086519 0.38,2.00951 1.1405,2.770019 l 5.540499,5.540001 c 0.760503,0.760495 1.684001,1.14049 2.770001,1.14049 1.086497,0 2.009505,-0.380491 2.769999,-1.14049 l 11.976499,-11.976499 11.977,11.976499 c 0.760497,0.760495 1.68301,1.14049 2.770508,1.14049 1.086002,0 2.009493,-0.380491 2.769502,-1.14049 l 5.539498,-5.540001 c 0.760502,-0.759999 1.140494,-1.6835 1.140494,-2.770019 0,-1.086482 -0.379992,-2.009499 -1.140494,-2.769981 z"
                   id="path1028"
                   sketch:type="MSShapeGroup"
                   inkscape:connector-curvature="0"
                   style="fill:#1a1a1a;fill-opacity:1;stroke-width:0.49999988" />
              </g>
            </g>
          </g>
        </g>
      </g>
    </g>
  </g>
  <g
     id="window-pin"
     transform="matrix(0.19736824,0,0,0.19047642,13.548594,-4.4292789)">
    <g
       style="fill:none;stroke:none"
       inkscape:label=""
       transform="matrix(1.1111111,0,0,1.1111111,10.755556,-20.722222)"
       id="e">
      <circle
         style="opacity:1;fill:none;fill-opacity:1;fill-rule:evenodd;stroke:none;stroke-width:1;stroke-linecap:round;stroke-linejoin:round;stroke-miterlimit:4;stroke-dasharray:none;stroke-dashoffset:0;stroke-opacity:1"
         id="path4145"
         cx="-27.5"
         cy="42.5"
         r="4.5" />
    </g>
    <g
       inkscape:label=""
       transform="matrix(0.7125,0,0,0.7125,-1.3937488,-2.5937493)"
       id="e-5">
      <ellipse
         style="opacity:1;fill:#00ff00;fill-opacity:1;fill-rule:evenodd;stroke:#ffffff;stroke-width:0.36192474;stroke-linecap:round;stroke-linejoin:round;stroke-miterlimit:4;stroke-dasharray:none;stroke-dashoffset:0;stroke-opacity:1"
         id="path4145-9"
         cx="-26.200499"
         cy="40.317684"
         rx="1.596817"
         ry="1.6611407" />
    </g>
  </g>
  <g
     transform="matrix(0.19736824,0,0,0.19047642,16.074912,-4.5245149)"
     id="window-unpin">
    <g
       style="fill:none;stroke:none"
       inkscape:label=""
       transform="matrix(1.1111111,0,0,1.1111111,10.755556,-20.722222)"
       id="e-0">
      <circle
         style="opacity:1;fill:none;fill-opacity:1;fill-rule:evenodd;stroke:none;stroke-width:1;stroke-linecap:round;stroke-linejoin:round;stroke-miterlimit:4;stroke-dasharray:none;stroke-dashoffset:0;stroke-opacity:1"
         id="path4145-2"
         cx="-27.5"
         cy="42.5"
         r="4.5" />
    </g>
    <g
       inkscape:label=""
       transform="matrix(0.7125,0,0,0.7125,-1.3937488,-2.5937493)"
       id="e-5-5">
      <ellipse
         style="opacity:1;fill:#aababe;fill-opacity:1;fill-rule:evenodd;stroke:#ffffff;stroke-width:0.36192495;stroke-linecap:round;stroke-linejoin:round;stroke-miterlimit:4;stroke-dasharray:none;stroke-dashoffset:0;stroke-opacity:1"
         id="path4145-9-6"
         cx="-26.200499"
         cy="40.972538"
         rx="1.5968169"
         ry="1.6611407" />
    </g>
  </g>
</svg>
